<svg width="522" height="655" viewBox="0 0 522 655" fill="none" xmlns="http://www.w3.org/2000/svg">
<rect x="65" width="457" height="655" rx="30" fill="#FFDADA"/>
<path d="M315.333 86.4C312.8 87.2 308.667 90 306 92.6667C293.733 104.933 295.733 127.2 312.533 162.533L318.933 176.267L312.667 194.133C303.733 219.333 299.067 230.667 288.8 252.133L279.733 270.8L267.2 275.2C234.133 286.8 211.733 302.133 206.133 317.067C199.733 333.867 213.6 354 231.333 354C236.4 354 247.2 348.4 254.267 342.133C262.133 335.2 278.667 313.333 286.933 299.067C290.4 293.333 294.133 288 295.467 287.2C302.667 283.467 357.333 272.533 379.6 270.533L389.733 269.6L400.933 278.933C429.733 303.2 450 309.867 464.933 300C474.4 293.733 480.667 279.733 478.133 270.267C476.667 264.8 470.533 258.267 463.733 254.8C455.2 250.533 440.533 248.4 418.533 248.133L397.2 247.867L389.867 239.867C375.6 224.4 360.267 204.133 347.467 184.267C340.933 174.133 340.933 176.133 346.667 152C350.8 134 352.4 112.8 350.133 103.867C348 95.7333 343.067 88.9333 337.2 86.5333C332 84.4 322 84.2667 315.333 86.4ZM330.4 110C331.6 114.667 329.333 139.6 327.467 143.2C326.133 145.467 325.733 144.8 322 133.333C318 121.067 317.733 109.2 321.333 106.533C325.6 103.467 329.067 104.667 330.4 110ZM342.8 213.067C347.067 219.067 355.2 229.867 361.067 237.067C366.933 244.267 371.467 250.267 371.2 250.533C370.933 250.8 363.867 252 355.467 253.2C347.067 254.533 333.333 257.067 325.067 258.933C316.667 260.667 309.333 262 308.667 261.733C308 261.467 310.133 255.333 313.467 248C318.533 237.067 327.333 215.333 331.733 202.933C332.933 199.6 334.133 200.533 342.8 213.067ZM445.867 270.133C449.6 270.933 454 272.667 455.6 274C458.4 276.267 458.4 276.4 456.267 279.867C454.4 282.667 452.933 283.333 448.8 283.333C443.467 283.333 431.067 277.6 424 271.867L420 268.667H429.6C434.933 268.667 442.267 269.333 445.867 270.133ZM262 300.133C262 301.467 254.133 312.4 248.4 318.933C236.933 332.133 228.8 336 225.867 329.467C222.8 322.8 230 315.2 249.733 304.4C258.133 299.733 262 298.4 262 300.133Z" fill="#D24646"/>
<path d="M18.6667 337.867C12 340.8 5.86667 346.8 2.53333 353.6C0.133333 358.4 0 363.333 0 466.667V574.667L2.93333 580.133C6.66667 587.067 13.4667 593.067 20.8 595.867C26.1333 597.867 42 598 204 597.733L381.333 597.333L385.867 594.133C388.267 592.4 391.467 588.533 392.8 585.467C395.067 580.4 395.333 575.2 395.333 501.333C395.333 450.4 394.8 420.933 393.867 417.6C392 410.8 385.467 403.733 379.6 402C376.4 401.2 320.8 400.667 219.733 400.667H64.6667V368V335.333H44.4C27.4667 335.333 23.0667 335.867 18.6667 337.867ZM128.133 448C145.333 456.8 152.8 477.067 145.333 494.933C144.4 497.2 141.067 501.867 138 505.2C130.667 513.067 121.467 516.667 108 516.667H98V532.133C98 540.533 97.4667 548.533 96.6667 549.867C94.9333 553.2 88.1333 555.867 84 554.8C82.2667 554.4 79.4667 552.667 78 551.067C75.4667 548.267 75.3333 546.533 75.3333 500C75.3333 448.133 75.4667 447.6 82.5333 444.533C84 443.867 93.2 443.467 102.8 443.733C119.2 444 120.8 444.267 128.133 448ZM212 446.133C222 448 226.133 450.133 234 457.467C255.467 477.6 254.667 522.667 232.533 542.533C222.933 551.2 213.067 554 192.8 554C183.067 554 176.133 553.333 174 552.267C168 549.333 167.467 544.533 167.467 498C167.467 451.6 167.6 450.133 174.133 446.533C178.133 444.267 201.067 444.133 212 446.133ZM324 448C326.267 450.133 327.333 452.667 327.333 456C327.333 459.333 326.267 461.867 324 464C320.933 467.067 319.867 467.333 306.667 467.333H292.667V477.333V487.333H305.333C317.067 487.333 318.4 487.6 321.333 490.667C323.6 492.8 324.667 495.333 324.667 498.667C324.667 502 323.6 504.533 321.333 506.667C318.4 509.733 317.067 510 305.333 510H292.667V527.333C292.667 547.067 291.467 551.2 284.667 554C281.067 555.467 279.733 555.467 275.867 553.6C273.333 552.4 270.667 549.867 270 547.867C269.2 545.867 268.667 525.467 268.667 499.2C268.667 461.733 269.067 453.2 270.667 450C271.733 448 273.333 446 274.267 445.6C275.2 445.2 286.133 444.8 298.4 444.8C320.4 444.667 320.8 444.667 324 448Z" fill="#D24646"/>
<path d="M98 480.667V494H104.667C116.8 494 124.667 488.533 124.667 480.267C124.667 471.6 118.533 467.333 106 467.333H98V480.667Z" fill="#D24646"/>
<path d="M191.333 499.333V530H200C213.067 530 220 525.333 224 514.133C228.267 502.133 225.733 482.8 218.933 475.6C214.133 470.4 209.333 468.667 200 468.667H191.333V499.333Z" fill="#D24646"/>
</svg>
