<?xml version="1.0" encoding="UTF-8" standalone="no"?>
<!DOCTYPE svg PUBLIC "-//W3C//DTD SVG 1.1//EN" "http://www.w3.org/Graphics/SVG/1.1/DTD/svg11.dtd">
<svg width="100%" height="100%" viewBox="0 0 3508 2481" version="1.1" xmlns="http://www.w3.org/2000/svg" xmlns:xlink="http://www.w3.org/1999/xlink" xml:space="preserve" xmlns:serif="http://www.serif.com/" style="fill-rule:evenodd;clip-rule:evenodd;stroke-linejoin:round;stroke-miterlimit:2;">
    <g>
        <g transform="matrix(0.61173,0,0,0.588132,-853.491,607.876)">
            <path d="M2624.09,1485.51L1840.34,1475.9L1548.85,2475.72L2346.28,2484.1" style="fill:rgb(255,189,89);"/>
        </g>
        <g transform="matrix(0.61173,0,0,0.588132,-259.813,607.876)">
            <path d="M2624.09,1485.51L1840.34,1475.9L1548.85,2475.72L2346.28,2484.1" style="fill:rgb(255,189,89);"/>
        </g>
        <g transform="matrix(0.61173,0,0,0.588132,320.673,607.876)">
            <path d="M2624.09,1485.51L1840.34,1475.9L1548.85,2475.72L2346.28,2484.1" style="fill:rgb(255,189,89);"/>
        </g>
        <g transform="matrix(0.61173,0,0,0.588132,889.85,607.876)">
            <path d="M2624.09,1485.51L1840.34,1475.9L1548.85,2475.72L2346.28,2484.1" style="fill:rgb(255,189,89);"/>
        </g>
        <g transform="matrix(0.61173,0,0,0.588132,1457.75,607.876)">
            <path d="M2624.09,1485.51L1840.34,1475.9L1548.85,2475.72L2346.28,2484.1" style="fill:rgb(255,189,89);"/>
        </g>
    </g>
</svg>
